<svg width="28" height="28" viewBox="0 0 28 28" fill="none" xmlns="http://www.w3.org/2000/svg">
<g id="Icon/close">
<path id="Shape" fill-rule="evenodd" clip-rule="evenodd" d="M28 2.8L25.2 0L14 11.2L2.8 0L0 2.8L11.2 14L0 25.2L2.8 28L14 16.8L25.2 28L28 25.2L16.8 14L28 2.8Z" fill="#BCBCBC"/>
<mask id="mask0_539_22579" style="mask-type:alpha" maskUnits="userSpaceOnUse" x="0" y="0" width="28" height="28">
<path id="Shape_2" fill-rule="evenodd" clip-rule="evenodd" d="M28 2.8L25.2 0L14 11.2L2.8 0L0 2.8L11.2 14L0 25.2L2.8 28L14 16.8L25.2 28L28 25.2L16.8 14L28 2.8Z" fill="white"/>
</mask>
<g mask="url(#mask0_539_22579)">
</g>
</g>
</svg>
<svg width="28" height="28" viewBox="0 0 28 28" fill="none" xmlns="http://www.w3.org/2000/svg">
<g id="Icon/close">
<path id="Shape" fill-rule="evenodd" clip-rule="evenodd" d="M28 2.8L25.2 0L14 11.2L2.8 0L0 2.8L11.2 14L0 25.2L2.8 28L14 16.8L25.2 28L28 25.2L16.8 14L28 2.8Z" fill="#BCBCBC"/>
<mask id="mask0_539_22579" style="mask-type:alpha" maskUnits="userSpaceOnUse" x="0" y="0" width="28" height="28">
<path id="Shape_2" fill-rule="evenodd" clip-rule="evenodd" d="M28 2.8L25.2 0L14 11.2L2.8 0L0 2.8L11.2 14L0 25.2L2.8 28L14 16.8L25.2 28L28 25.2L16.8 14L28 2.8Z" fill="white"/>
</mask>
<g mask="url(#mask0_539_22579)">
</g>
</g>
</svg>
